# AST/ASF file generated using VICON BodyLanguage
# -----------------------------------------------
:version 1.10
:name VICON
:units
  mass 1.0
  length 0.45
  angle deg
:documentation
   .ast/.asf automatically generated from VICON data using
   VICON BodyBuilder and BodyLanguage model FoxedUp or BRILLIANT.MOD
:root
   order TX TY TZ RX RY RZ
   axis XYZ
   position 0 0 0  
   orientation 0 0 0 
:bonedata
  begin
     id 1 
     name lhipjoint
     direction 0.623415 -0.642378 0.445763 
     length 2.49859 
     axis 0 0 0  XYZ
  end
  begin
     id 2 
     name lfemur
     direction 0.34202 -0.939693 0  
     length 6.69689  
     axis 0 0 20  XYZ
    dof rx ry rz
    limits (-160.0 20.0)
           (-70.0 70.0)
           (-60.0 70.0)
  end
  begin
     id 3 
     name ltibia
     direction 0.34202 -0.939693 0   
     length 7.37574   
     axis 0 0 20   XYZ
    dof rx
    limits (-10.0 170.0)
  end
  begin
     id 4 
     name lfoot
     direction 0.084323 -0.231675 0.969132   
     length 2.09111   
     axis -90 7.62852e-016 20   XYZ
    dof rx rz
    limits (-45.0 90.0)
           (-70.0 20.0)
  end
  begin
     id 5 
     name ltoes
     direction 1.5357e-011 -4.21957e-011 1   
     length 1.04989   
     axis -90 7.62852e-016 20   XYZ
    dof rx
    limits (-90.0 20.0)
  end
  begin
     id 6 
     name rhipjoint
     direction -0.605402 -0.653903 0.45376   
     length 2.45455  
     axis 0 0 0  XYZ 
  end
  begin
     id 7 
     name rfemur
     direction -0.34202 -0.939693 0   
     length 6.64523   
     axis 0 0 -20   XYZ
    dof rx ry rz
    limits (-160.0 20.0)
           (-70.0 70.0)
           (-70.0 60.0)
  end
  begin
     id 8 
     name rtibia
     direction -0.34202 -0.939693 0   
     length 7.3339   
     axis 0 0 -20   XYZ
    dof rx
    limits (-10.0 170.0)
 end
 begin
     id 9 
     name rfoot
     direction -0.120854 -0.332043 0.93549   
     length 2.23135  
     axis -90 -7.62852e-016 -20   XYZ
    dof rx rz
    limits (-45.0 90.0)
           (-20.0 70.0)
  end
  begin
     id 10 
     name rtoes
     direction -1.53563e-011 -4.21914e-011 1   
     length 1.10614   
     axis -90 -7.62852e-016 -20   XYZ
    dof rx
    limits (-90.0 20.0)
  end
  begin
     id 11 
     name lowerback
     direction 0.0319682 0.998615 -0.0417941   
     length 2.02718   
     axis 0 0 0   XYZ
    dof rx ry rz
    limits (-20.0 45.0)
           (-30.0 30.0)
           (-30.0 30.0)
  end
  begin
     id 12 
     name upperback
     direction 7.63181e-005 0.995808 0.0914691   
     length 1.97539   
     axis 0 0 0   XYZ
    dof rx ry rz
    limits (-20.0 45.0)
           (-30.0 30.0)
           (-30.0 30.0)
  end
  begin
     id 13 
     name thorax
     direction -0.016423 0.993627 0.111514   
     length 2.00349   
     axis 0 0 0   XYZ
    dof rx ry rz
    limits (-20.0 45.0)
           (-30.0 30.0)
           (-30.0 30.0)
  end
  begin
     id 14 
     name lowerneck
     direction -0.174763 0.981668 -0.0760716   
     length 1.71436   
     axis 0 0 0   XYZ
    dof rx ry rz
    limits (-20.0 45.0)
           (-30.0 30.0)
           (-30.0 30.0)
  end
  begin
     id 15 
     name upperneck
     direction 0.345458 0.934587 -0.0848868   
     length 1.72805   
     axis 0 0 0   XYZ
    dof rx ry rz
    limits (-20.0 45.0)
           (-30.0 30.0)
           (-30.0 30.0)
  end
  begin
     id 16
     name head
     direction 0.13001 0.989848 -0.0574291  
     length 1.767  
     axis 0 0 0   XYZ
    dof rx ry rz
    limits (-20.0 45.0)
           (-30.0 30.0)
           (-30.0 30.0)
  end
  begin
     id 17 
     name lclavicle
     direction 0.952951 0.290122 0.0878234  
     length 3.54654  
     axis 0 0 0   XYZ
    dof ry rz
    limits (-20.0 10.0)
           (0.0 20.0)
  end
  begin
     id 18 
     name lhumerus
     direction 1 -4.48957e-011 -4.56525e-028   
     length 5.19807   
     axis 180 -30 -90   XYZ
    dof rx ry rz
    limits (-60.0 90.0)
           (-90.0 90.0)
           (-90.0 90.0)
  end
  begin
     id 19
     name lradius
     direction 1 -4.48979e-011 -2.0317e-027   
     length 3.0937   
     axis 180 -30 -90   XYZ
    dof rx
    limits (-10.0 170.0)
  end
  begin
     id 20
     name lwrist
     direction 1 -4.48953e-011 -3.05809e-027   
     length 1.54685   
     axis 8.48514e-016 90 90   XYZ
    dof ry
    limits (-180.0 0.0)
 end
  begin
     id 21 
     name lhand
     direction 1 -4.48952e-011 -6.11639e-027   
     length 0.672632   
     axis 3.9013e-015 90 90   XYZ
    dof rx rz
    limits (-90.0 90.0)
           (-45.0 45.0)
  end
  begin
     id 22 
     name lfingers
     direction 1 -4.48925e-011 -1.22426e-026   
     length 0.542293   
     axis 7.80276e-015 90 90   XYZ
    dof rx
    limits (0.0 90.0)
  end
  begin
     id 23
     name lthumb
     direction 0.707107 -6.3486e-011 0.707107   
     length 0.778628   
     axis -90 45 5.37419e-014   XYZ
    dof rx rz
    limits (-45.0 45.0)
           (-45.0 45.0)
  end
  begin
     id 24 
     name rclavicle
     direction -0.960732 0.273675 -0.0457849   
     length 3.52079  
     axis 0 0 0   XYZ 
    dof ry rz
    limits (-10.0 20.0)
           (-20.0 0.0)
  end
  begin
     id 25 
     name rhumerus
     direction -1 -4.48976e-011 -1.63613e-027  
     length 5.45222   
     axis 180 30 90   XYZ
    dof rx ry rz
    limits (-90.0 60.0)
           (-90.0 90.0)
           (-90.0 90.0)
  end
  begin
     id 26 
     name rradius
     direction -1 -4.48957e-011 -7.00033e-028   
     length 3.01284   
     axis 180 30 90   XYZ
    dof rx
    limits (-10.0 170.0)
  end
  begin
     id 27 
     name rwrist
     direction -1 -4.48983e-011 -3.05543e-027   
     length 1.50642   
     axis 8.48514e-016 -90 -90   XYZ
    dof ry
    limits (-180.0 0.0)
  end
  begin
     id 28
     name rhand
     direction -1 -4.48984e-011 -6.11072e-027   
     length 0.622296   
     axis 3.9013e-015 -90 -90   XYZ
    dof rx rz
    limits (-90.0 90.0)
           (-45.0 45.0)
  end
  begin
     id 29
     name rfingers
     direction -1 -4.48865e-011 -1.22637e-026   
     length 0.501711   
     axis 7.80276e-015 -90 -90   XYZ
    dof rx
    limits (0.0 90.0)
  end
  begin
     id 30
     name rthumb
     direction -0.707107 -6.34932e-011 0.707107   
     length 0.72036   
     axis -90 -45 -5.37419e-014   XYZ
    dof rx rz
    limits (-45.0 45.0)
           (-45.0 45.0)
  end
:hierarchy
  begin
    root lhipjoint rhipjoint lowerback
    lhipjoint lfemur
    lfemur ltibia
    ltibia lfoot
    lfoot ltoes
    rhipjoint rfemur
    rfemur rtibia
    rtibia rfoot
    rfoot rtoes
    lowerback upperback
    upperback thorax
    thorax lowerneck lclavicle rclavicle
    lowerneck upperneck
    upperneck head
    lclavicle lhumerus
    lhumerus lradius
    lradius lwrist
    lwrist lhand lthumb
    lhand lfingers
    rclavicle rhumerus
    rhumerus rradius
    rradius rwrist
    rwrist rhand rthumb
    rhand rfingers
  end

#!OML:ASF H:\Not Pregnant\Project 1\Capture day 1\Session 1\non-pregnant.ASF
:FULLY-SPECIFIED
:DEGREES
84
root -7.15652 15.6871 35.9592 -167.592 -9.75344 -183.372
lowerback 3.05307 -0.730568 -5.73161
upperback -6.55833 -1.89886 -1.40079
thorax -8.52173 -0.769871 1.94508
lowerneck 24.5365 -9.21144 -29.107
upperneck -11.8192 -23.159 43.4292
head 2.23771 -15.6781 21.5077
rclavicle -2.50251e-014 -1.98785e-015
rhumerus -40.7028 -14.2464 -78.5574
rradius 23.9768
rwrist 23.9453
rhand -7.36172 -2.15515
rfingers 7.12502
rthumb 18.5229 -31.2933
lclavicle -2.50251e-014 -1.98785e-015
lhumerus -43.9785 -13.5655 93.9458
lradius 31.5373
lwrist 34.5197
lhand -14.9824 -9.75191
lfingers 7.12502
lthumb 11.1818 19.9301
rfemur -48.113 -0.837455 16.3557
rtibia 27.3345
rfoot -8.53601 11.1252
rtoes -15.9042
lfemur -1.15896 2.68351 -24.4961
ltibia 12.6036
lfoot -21.1906 -10.4119
ltoes -10.7991
85
root -7.14591 15.6842 35.8525 -167.504 -9.93557 -183.479
lowerback 2.96426 -0.738005 -5.78371
upperback -6.61528 -1.9231 -1.45087
thorax -8.53154 -0.783631 1.92248
lowerneck 24.6112 -9.25562 -29.1367
upperneck -11.7267 -23.2615 43.3634
head 2.28337 -15.7197 21.4491
rclavicle 2.08941e-014 -1.78906e-014
rhumerus -40.8489 -14.484 -78.3503
rradius 23.7735
rwrist 24.6329
rhand -7.22966 -2.01988
rfingers 7.12502
rthumb 18.6499 -31.1459
lclavicle 2.08941e-014 -1.78906e-014
lhumerus -43.9284 -13.4123 93.7917
lradius 31.2802
lwrist 34.4029
lhand -14.8354 -9.83664
lfingers 7.12502
lthumb 11.3235 19.8377
rfemur -48.0586 -0.694146 16.1283
rtibia 27.3285
rfoot -8.51647 10.8674
rtoes -14.7548
lfemur -0.503486 2.64106 -24.4263
ltibia 11.9124
lfoot -20.8249 -10.7163
ltoes -11.416
86
root -7.1354 15.6801 35.7438 -167.426 -10.1193 -183.549
lowerback 2.86499 -0.740602 -5.79128
upperback -6.67603 -1.93589 -1.49114
thorax -8.5405 -0.794212 1.88406
lowerneck 24.7274 -9.29945 -29.1608
upperneck -11.6654 -23.3542 43.2838
head 2.30578 -15.7563 21.3918
rclavicle 3.88873e-015 -4.77083e-015
rhumerus -41.0142 -14.6827 -78.1586
rradius 23.5927
rwrist 25.2749
rhand -7.03232 -1.92386
rfingers 7.12502
rthumb 18.8397 -31.0315
lclavicle 3.88873e-015 -4.77083e-015
lhumerus -43.8908 -13.2322 93.6264
lradius 31.0173
lwrist 34.3161
lhand -14.6965 -9.97688
lfingers 7.12502
lthumb 11.4575 19.69
rfemur -47.955 -0.536522 15.9565
rtibia 27.4137
rfoot -8.47811 10.4204
rtoes -13.739
lfemur 0.106611 2.56248 -24.3169
ltibia 11.3424
lfoot -20.4793 -10.9725
ltoes -11.9498
87
root -7.12468 15.6746 35.6329 -167.347 -10.3063 -183.587
lowerback 2.74493 -0.741915 -5.76261
upperback -6.73904 -1.94181 -1.52028
thorax -8.54031 -0.803585 1.83606
lowerneck 24.8699 -9.34511 -29.1875
upperneck -11.6465 -23.4383 43.2015
head 2.30886 -15.789 21.341
rclavicle 1.09829e-014 -3.18055e-015
rhumerus -41.1837 -14.8466 -77.9811
rradius 23.4264
rwrist 25.8673
rhand -6.80328 -1.85023
rfingers 7.12502
rthumb 19.06 -30.9363
lclavicle 1.09829e-014 -3.18055e-015
lhumerus -43.8558 -13.0208 93.4475
lradius 30.7585
lwrist 34.2279
lhand -14.5764 -10.1045
lfingers 7.12502
lthumb 11.5733 19.5559
rfemur -47.8106 -0.363997 15.8335
rtibia 27.5807
rfoot -8.44578 9.80835
rtoes -12.9424
lfemur 0.649322 2.45147 -24.1727
ltibia 10.9176
lfoot -20.1653 -11.1756
ltoes -12.4299
88
root -7.11405 15.6673 35.5196 -167.265 -10.488 -183.595
lowerback 2.60087 -0.742866 -5.69248
upperback -6.80213 -1.94158 -1.5404
thorax -8.52673 -0.812684 1.77331
lowerneck 24.9949 -9.38577 -29.2275
upperneck -11.6188 -23.5151 43.1179
head 2.31604 -15.8159 21.2915
rclavicle 3.14018e-014 -2.46493e-014
rhumerus -41.3447 -14.9671 -77.8305
rradius 23.2731
rwrist 26.3772
rhand -6.56406 -1.77897
rfingers 7.12502
rthumb 19.29 -30.8422
lclavicle 3.14018e-014 -2.46493e-014
lhumerus -43.8356 -12.7906 93.2644
lradius 30.5486
lwrist 34.0998
lhand -14.5414 -10.1532
lfingers 7.12502
lthumb 11.607 19.5053
rfemur -47.6371 -0.199427 15.7749
rtibia 27.821
rfoot -8.43376 9.11666
rtoes -12.3987
lfemur 1.12471 2.31054 -24.002
ltibia 10.6354
lfoot -19.8902 -11.2979
ltoes -12.9522
89
root -7.10318 15.6595 35.404 -167.182 -10.6727 -183.586
lowerback 2.42682 -0.738598 -5.60699
upperback -6.87026 -1.9316 -1.55308
thorax -8.50166 -0.818335 1.70831
lowerneck 25.1631 -9.41199 -29.269
upperneck -11.6136 -23.5722 43.0312
head 2.30121 -15.8357 21.2556
rclavicle 5.00689e-015 4.37326e-015
rhumerus -41.509 -15.0569 -77.6927
rradius 23.1278
rwrist 26.771
rhand -6.28537 -1.75779
rfingers 7.12502
rthumb 19.558 -30.7941
lclavicle 5.00689e-015 4.37326e-015
lhumerus -43.8539 -12.586 93.117
lradius 30.3891
lwrist 33.975
lhand -14.6741 -10.086
lfingers 7.12502
lthumb 11.4791 19.5797
rfemur -47.4397 -0.0695019 15.7828
rtibia 28.1233
rfoot -8.42465 8.42149
rtoes -12.1312
lfemur 1.54767 2.1679 -23.8151
ltibia 10.4608
lfoot -19.6471 -11.3639
ltoes -13.6063
